<svg width="23" height="22" viewBox="0 0 23 22" fill="none" xmlns="http://www.w3.org/2000/svg">
<g clip-path="url(#clip0)">
<circle cx="11" cy="11" r="10" fill="white"/>
<path d="M11.4238 0C5.12474 0 0 4.9346 0 11C0 17.0654 5.12474 22 11.4238 22C17.7229 22 22.8477 17.0654 22.8477 11C22.8477 4.9346 17.7229 0 11.4238 0ZM11.4238 21.2667C5.54475 21.2667 0.761589 16.661 0.761589 11C0.761589 5.33903 5.54475 0.733333 11.4238 0.733333C17.3029 0.733333 22.0861 5.33903 22.0861 11C22.0861 16.661 17.3029 21.2667 11.4238 21.2667Z" fill="#333333"/>
<path d="M11 3V12H3" stroke="#333333" stroke-width="1.5"/>
</g>
<defs>
<clipPath id="clip0">
<rect width="22.8477" height="22" fill="white"/>
</clipPath>
</defs>
</svg>
