<svg width="32" height="32" viewBox="0 0 32 32" fill="none" xmlns="http://www.w3.org/2000/svg">
<rect width="31.1111" height="31.1111" rx="13.3333" transform="matrix(1 0 0 -1 0.44458 31.5557)" fill="#00793A"/>
<path d="M19.9792 7.11133H12.0211C10.7182 7.11338 9.46937 7.63171 8.54882 8.55251C7.62827 9.47331 7.11123 10.7213 7.11124 12.0225V19.9857C7.11329 21.2855 7.63123 22.5315 8.55156 23.4507C9.47188 24.3698 10.7195 24.8871 12.0211 24.8891H19.9792C21.2807 24.8871 22.5284 24.3698 23.4487 23.4507C24.369 22.5315 24.887 21.2855 24.889 19.9857V12.0225C24.889 10.7213 24.372 9.47331 23.4514 8.55251C22.5309 7.63171 21.2821 7.11338 19.9792 7.11133ZM23.3145 19.9857C23.3124 20.8678 22.9601 21.713 22.3348 22.336C21.7096 22.959 20.8624 23.3089 19.9792 23.3089H12.0211C11.1378 23.3089 10.2907 22.959 9.66541 22.336C9.04015 21.713 8.68785 20.8678 8.68579 19.9857V12.0225C8.68784 11.1397 9.0399 10.2937 9.66494 9.66944C10.29 9.04521 11.1371 8.69362 12.0211 8.69158H19.9792C20.8631 8.69362 21.7103 9.04521 22.3353 9.66944C22.9604 10.2937 23.3124 11.1397 23.3145 12.0225V19.9857Z" fill="white"/>
<path d="M16.0076 11.5557C15.1283 11.5542 14.2682 11.8136 13.5364 12.301C12.8045 12.7885 12.2337 13.4821 11.8961 14.2941C11.5586 15.1061 11.4695 15.9999 11.6402 16.8626C11.8108 17.7252 12.2335 18.5178 12.8548 19.1401C13.476 19.7625 14.2679 20.1865 15.1303 20.3586C15.9926 20.5307 16.8866 20.4431 17.6992 20.107C18.5117 19.7708 19.2063 19.2011 19.695 18.4701C20.1837 17.739 20.4446 16.8795 20.4446 16.0001C20.4446 14.8227 19.9773 13.6933 19.1455 12.8601C18.3136 12.0268 17.1851 11.5577 16.0076 11.5557ZM16.0076 18.9055C15.4312 18.9055 14.8677 18.7345 14.3885 18.4141C13.9093 18.0937 13.536 17.6383 13.3157 17.1056C13.0955 16.5729 13.0382 15.9868 13.1512 15.4216C13.2642 14.8563 13.5424 14.3373 13.9505 13.9302C14.3587 13.5231 14.8784 13.2463 15.444 13.1348C16.0095 13.0232 16.5954 13.082 17.1276 13.3036C17.6597 13.5252 18.1141 13.8997 18.4333 14.3797C18.7524 14.8598 18.922 15.4237 18.9205 16.0001C18.9185 16.7714 18.6108 17.5104 18.0647 18.055C17.5186 18.5997 16.7789 18.9055 16.0076 18.9055Z" fill="white"/>
<path d="M20.4481 10.4443C20.1525 10.4443 19.869 10.5614 19.6599 10.7698C19.4509 10.9781 19.3335 11.2608 19.3335 11.5554C19.3335 11.8501 19.4509 12.1327 19.6599 12.3411C19.869 12.5495 20.1525 12.6666 20.4481 12.6666C20.7418 12.6644 21.0235 12.5504 21.2357 12.348C21.4409 12.1378 21.5557 11.8561 21.5557 11.5629C21.5557 11.2696 21.4409 10.9879 21.2357 10.7777C21.0259 10.5698 20.7438 10.4505 20.4481 10.4443Z" fill="white"/>
</svg>
