<svg width="16" height="23" viewBox="0 0 16 23" fill="none" xmlns="http://www.w3.org/2000/svg">
<path d="M13.0872 2.24605C11.5899 0.748527 9.78293 0 7.66663 0C5.55023 0 3.74342 0.748684 2.24605 2.24605C0.748737 3.74337 0 5.55023 0 7.66663C0 8.75486 0.164685 9.64819 0.494001 10.347L5.95953 21.9371C6.10932 22.2663 6.3415 22.5258 6.65592 22.7153C6.97039 22.905 7.30726 23 7.66674 23C8.0261 23 8.36313 22.905 8.67755 22.7153C8.99203 22.5258 9.22893 22.2663 9.38868 21.9371L14.8389 10.347C15.1684 9.64819 15.3332 8.75481 15.3332 7.66663C15.3334 5.55023 14.5848 3.74358 13.0872 2.24605ZM10.3768 10.3769C9.62821 11.1255 8.72486 11.4999 7.66663 11.4999C6.6084 11.4999 5.70505 11.1255 4.95626 10.3769C4.20758 9.62816 3.83316 8.72481 3.83316 7.66658C3.83316 6.60846 4.20758 5.70495 4.95626 4.95637C5.70505 4.20768 6.60856 3.83326 7.66663 3.83326C8.72486 3.83326 9.62821 4.20768 10.3768 4.95637C11.1254 5.7049 11.4998 6.60846 11.4998 7.66658C11.4998 8.7247 11.1255 9.628 10.3768 10.3769Z" fill="#00793A"/>
</svg>
