<svg width="23" height="23" viewBox="0 0 23 23" fill="none" xmlns="http://www.w3.org/2000/svg">
<path d="M16.8086 2.24605C15.3213 0.748527 13.5262 0 11.424 0C9.32158 0 7.52674 0.748684 6.03928 2.24605C4.55188 3.74337 3.80811 5.55023 3.80811 7.66663C3.80811 8.75486 3.9717 9.64819 4.29883 10.347L9.72816 21.9371C9.87696 22.2663 10.1076 22.5258 10.4199 22.7153C10.7323 22.905 11.067 23 11.4241 23C11.7811 23 12.1159 22.905 12.4282 22.7153C12.7406 22.5258 12.9759 22.2663 13.1346 21.9371L18.5487 10.347C18.876 9.64819 19.0397 8.75481 19.0397 7.66663C19.04 5.55023 18.2964 3.74358 16.8086 2.24605ZM14.1162 10.3769C13.3726 11.1255 12.4752 11.4999 11.424 11.4999C10.3727 11.4999 9.47538 11.1255 8.73155 10.3769C7.98782 9.62816 7.61588 8.72481 7.61588 7.66658C7.61588 6.60846 7.98782 5.70495 8.73155 4.95637C9.47538 4.20768 10.3729 3.83326 11.424 3.83326C12.4752 3.83326 13.3726 4.20768 14.1162 4.95637C14.8598 5.7049 15.2318 6.60846 15.2318 7.66658C15.2318 8.7247 14.8599 9.628 14.1162 10.3769Z" fill="white"/>
</svg>
