<svg width="254" height="43" viewBox="0 0 254 43" fill="none" xmlns="http://www.w3.org/2000/svg">
<path d="M19.9155 24.6748C14.8155 24.6748 10.6652 28.7889 10.6652 33.8511C10.6652 38.885 14.8155 43.0001 19.9155 43.0001C25.0288 43.0001 29.1853 38.885 29.1853 33.8511C29.1853 28.7889 25.0288 24.6748 19.9155 24.6748ZM19.9155 38.781C17.186 38.781 14.942 36.5588 14.942 33.8511C14.942 31.1302 17.187 28.9081 19.9155 28.9081C22.6644 28.9081 24.9023 31.1302 24.9023 33.8511C24.9023 36.5578 22.6644 38.781 19.9155 38.781Z" fill="#00793A"/>
<path d="M82.2446 24.6748C77.1374 24.6748 72.9871 28.7889 72.9871 33.8511C72.9871 38.885 77.1374 43.0001 82.2446 43.0001C87.3507 43.0001 91.4939 38.885 91.4939 33.8511C91.4939 28.7889 87.3507 24.6748 82.2446 24.6748ZM82.2446 38.781C79.4957 38.781 77.2568 36.5588 77.2568 33.8511C77.2568 31.1302 79.4947 28.9081 82.2446 28.9081C84.9945 28.9081 87.2314 31.1302 87.2314 33.8511C87.2314 36.5578 84.9935 38.781 82.2446 38.781Z" fill="#00793A"/>
<path d="M100.214 26.9887C100.214 18.0891 94.6091 17.0239 94.6091 17.0239C86.3685 15.88 72.1701 15.2884 72.1701 15.2884C70.8686 13.0542 64.8526 0 61.352 0C60.1708 0 35.0554 0 30.6061 0C26.1508 0 18.8527 12.725 17.2523 15.6044C17.2523 15.6044 11.6606 16.5514 9.02496 17.1562C7.56432 17.4843 3.50676 17.5631 3.50676 28.7767H0V33.851H8.53332C8.53332 27.6197 13.6405 22.5717 19.9155 22.5717C26.2171 22.5717 31.3109 27.6197 31.3109 33.851H70.8492C70.8492 27.6197 75.9349 22.5717 82.2446 22.5717C88.5329 22.5717 93.6329 27.6197 93.6329 33.851H102V26.9887H100.214ZM45.6409 14.4212H27.8909C30.2879 7.01977 34.7371 1.73551 36.617 1.73551C38.9742 1.73551 45.6419 1.73551 45.6419 1.73551V14.4212H45.6409ZM48.9478 14.4212V1.73551C48.9478 1.73551 58.1053 1.73551 60.4625 1.73551C62.833 1.73551 68.033 12.4757 69.4936 15.2228L48.9478 14.4212Z" fill="#00793A"/>
<path d="M125.262 14.6094H121.034L120.296 17H117L121.693 4.20312H124.594L129.322 17H126.009L125.262 14.6094ZM121.772 12.2275H124.523L123.144 7.78906L121.772 12.2275Z" fill="black"/>
<path d="M130.324 17V7.49023H134.402C135.709 7.49023 136.708 7.71875 137.399 8.17578C138.097 8.63281 138.445 9.29199 138.445 10.1533C138.445 10.5928 138.293 10.9883 137.988 11.3398C137.684 11.6855 137.238 11.9521 136.652 12.1396C137.408 12.2686 137.991 12.5205 138.401 12.8955C138.812 13.2646 139.017 13.7275 139.017 14.2842C139.017 15.1807 138.677 15.8574 137.997 16.3145C137.323 16.7656 136.351 16.9941 135.079 17H130.324ZM133.295 13.124V14.7324H135.026C135.396 14.7324 135.659 14.668 135.817 14.5391C135.976 14.4102 136.055 14.2139 136.055 13.9502C136.055 13.4229 135.75 13.1475 135.141 13.124H133.295ZM133.295 11.2959H134.517C134.874 11.2959 135.123 11.2373 135.264 11.1201C135.41 10.9971 135.483 10.8184 135.483 10.584C135.483 10.2793 135.396 10.0654 135.22 9.94238C135.044 9.81934 134.771 9.75781 134.402 9.75781H133.295V11.2959Z" fill="black"/>
<path d="M148.456 9.75781H145.459V17H142.479V9.75781H139.526V7.49023H148.456V9.75781Z" fill="black"/>
<path d="M148.931 12.1572C148.931 11.208 149.115 10.3643 149.484 9.62598C149.854 8.88184 150.384 8.31055 151.075 7.91211C151.767 7.51367 152.578 7.31445 153.51 7.31445C154.934 7.31445 156.056 7.75684 156.876 8.6416C157.696 9.52051 158.106 10.7188 158.106 12.2363V12.3418C158.106 13.8242 157.693 15.002 156.867 15.875C156.047 16.7422 154.934 17.1758 153.527 17.1758C152.174 17.1758 151.087 16.7715 150.267 15.9629C149.446 15.1484 149.004 14.0469 148.939 12.6582L148.931 12.1572ZM151.893 12.3418C151.893 13.2207 152.03 13.8652 152.306 14.2754C152.581 14.6855 152.988 14.8906 153.527 14.8906C154.582 14.8906 155.121 14.0791 155.145 12.4561V12.1572C155.145 10.4521 154.6 9.59961 153.51 9.59961C152.52 9.59961 151.983 10.335 151.901 11.8057L151.893 12.3418Z" fill="black"/>
<path d="M165.779 7.75391C165.779 7.34961 165.621 7.02441 165.305 6.77832C164.994 6.53223 164.572 6.40918 164.039 6.40918C163.541 6.40918 163.14 6.5293 162.835 6.76953C162.536 7.00391 162.387 7.31445 162.387 7.70117H159.311C159.311 6.99805 159.51 6.36816 159.908 5.81152C160.312 5.25488 160.881 4.82129 161.613 4.51074C162.346 4.19434 163.154 4.03613 164.039 4.03613C165.562 4.03613 166.746 4.35547 167.59 4.99414C168.439 5.63281 168.864 6.52637 168.864 7.6748C168.864 8.26074 168.691 8.79688 168.346 9.2832C168.006 9.76367 167.534 10.1445 166.931 10.4258C167.622 10.6719 168.149 11.0469 168.513 11.5508C168.882 12.0488 169.066 12.6699 169.066 13.4141C169.066 14.5625 168.609 15.4766 167.695 16.1562C166.781 16.8301 165.562 17.167 164.039 17.167C162.627 17.167 161.455 16.8359 160.523 16.1738C159.592 15.5059 159.126 14.5977 159.126 13.4492H162.22C162.22 13.8301 162.39 14.1523 162.729 14.416C163.069 14.6738 163.506 14.8027 164.039 14.8027C164.613 14.8027 165.079 14.668 165.437 14.3984C165.794 14.1289 165.973 13.7773 165.973 13.3438C165.973 12.7109 165.82 12.2656 165.516 12.0078C165.211 11.7441 164.766 11.6123 164.18 11.6123H162.536V9.32715H164.285C165.281 9.29785 165.779 8.77344 165.779 7.75391Z" fill="black"/>
<path d="M176.106 17C176.001 16.8066 175.907 16.5225 175.825 16.1475C175.28 16.833 174.519 17.1758 173.54 17.1758C172.644 17.1758 171.882 16.9062 171.255 16.3672C170.628 15.8223 170.314 15.1396 170.314 14.3193C170.314 13.2881 170.695 12.5088 171.457 11.9814C172.219 11.4541 173.326 11.1904 174.779 11.1904H175.693V10.6895C175.693 9.81641 175.315 9.37988 174.56 9.37988C173.856 9.37988 173.505 9.72559 173.505 10.417H170.543C170.543 9.49707 170.933 8.75 171.712 8.17578C172.497 7.60156 173.496 7.31445 174.709 7.31445C175.922 7.31445 176.88 7.61035 177.583 8.20215C178.286 8.79395 178.646 9.60547 178.664 10.6367V14.8467C178.676 15.7197 178.811 16.3877 179.068 16.8506V17H176.106ZM174.252 15.0664C174.621 15.0664 174.926 14.9873 175.166 14.8291C175.412 14.6709 175.588 14.4922 175.693 14.293V12.7725H174.832C173.801 12.7725 173.285 13.2354 173.285 14.1611C173.285 14.4307 173.376 14.6504 173.558 14.8203C173.739 14.9844 173.971 15.0664 174.252 15.0664Z" fill="black"/>
<path d="M188.815 17H185.836V9.77539H183.217V17H180.255V7.49023H188.815V17Z" fill="black"/>
<path d="M198.853 17H195.873V14.1436C195.533 14.2021 195.24 14.2314 194.994 14.2314C193.43 14.2314 192.252 13.9297 191.461 13.3262C190.676 12.7168 190.28 11.8057 190.274 10.5928V7.49023H193.236V10.6191C193.242 11.1348 193.365 11.4863 193.605 11.6738C193.846 11.8555 194.309 11.9463 194.994 11.9463C195.281 11.9463 195.574 11.9199 195.873 11.8672V7.49023H198.853V17Z" fill="black"/>
<path d="M205.796 17C205.69 16.8066 205.597 16.5225 205.515 16.1475C204.97 16.833 204.208 17.1758 203.229 17.1758C202.333 17.1758 201.571 16.9062 200.944 16.3672C200.317 15.8223 200.004 15.1396 200.004 14.3193C200.004 13.2881 200.385 12.5088 201.146 11.9814C201.908 11.4541 203.016 11.1904 204.469 11.1904H205.383V10.6895C205.383 9.81641 205.005 9.37988 204.249 9.37988C203.546 9.37988 203.194 9.72559 203.194 10.417H200.232C200.232 9.49707 200.622 8.75 201.401 8.17578C202.187 7.60156 203.186 7.31445 204.398 7.31445C205.611 7.31445 206.569 7.61035 207.272 8.20215C207.976 8.79395 208.336 9.60547 208.354 10.6367V14.8467C208.365 15.7197 208.5 16.3877 208.758 16.8506V17H205.796ZM203.941 15.0664C204.311 15.0664 204.615 14.9873 204.855 14.8291C205.102 14.6709 205.277 14.4922 205.383 14.293V12.7725H204.521C203.49 12.7725 202.975 13.2354 202.975 14.1611C202.975 14.4307 203.065 14.6504 203.247 14.8203C203.429 14.9844 203.66 15.0664 203.941 15.0664Z" fill="black"/>
<path d="M214.022 14.8906C214.438 14.8906 214.761 14.7793 214.989 14.5566C215.218 14.3281 215.329 14.0117 215.323 13.6074H218.101C218.101 14.6504 217.726 15.5059 216.976 16.1738C216.231 16.8418 215.271 17.1758 214.093 17.1758C212.71 17.1758 211.62 16.7422 210.823 15.875C210.026 15.0078 209.628 13.8066 209.628 12.2715V12.1484C209.628 11.1875 209.804 10.3408 210.155 9.6084C210.513 8.87012 211.025 8.30469 211.693 7.91211C212.361 7.51367 213.152 7.31445 214.066 7.31445C215.303 7.31445 216.284 7.65723 217.011 8.34277C217.737 9.02832 218.101 9.95703 218.101 11.1289H215.323C215.323 10.6367 215.203 10.2588 214.963 9.99512C214.723 9.73145 214.4 9.59961 213.996 9.59961C213.229 9.59961 212.78 10.0889 212.651 11.0674C212.61 11.3779 212.59 11.8057 212.59 12.3506C212.59 13.3057 212.704 13.9678 212.933 14.3369C213.161 14.7061 213.524 14.8906 214.022 14.8906Z" fill="black"/>
<path d="M227.681 9.75781H224.684V17H221.704V9.75781H218.751V7.49023H227.681V9.75781Z" fill="black"/>
<path d="M234.325 7.49023H237.296V17H234.325V11.4629L231.715 17H228.735V7.49023H231.715V13.0098L234.325 7.49023Z" fill="black"/>
<path d="M128.742 38H125.657V27.585H121.061V38H117.976V25.2031H128.742V38Z" fill="black"/>
<path d="M138.604 32.5771H133.752V35.627H139.482V38H130.667V25.2031H139.5V27.585H133.752V30.2832H138.604V32.5771Z" fill="black"/>
<path d="M151.436 38H148.368V32.6562H143.824V38H140.739V25.2031H143.824V30.2832H148.368V25.2031H151.436V38Z" fill="black"/>
<path d="M159.627 28.7539C159.627 28.3496 159.469 28.0244 159.152 27.7783C158.842 27.5322 158.42 27.4092 157.887 27.4092C157.389 27.4092 156.987 27.5293 156.683 27.7695C156.384 28.0039 156.234 28.3145 156.234 28.7012H153.158C153.158 27.998 153.357 27.3682 153.756 26.8115C154.16 26.2549 154.729 25.8213 155.461 25.5107C156.193 25.1943 157.002 25.0361 157.887 25.0361C159.41 25.0361 160.594 25.3555 161.438 25.9941C162.287 26.6328 162.712 27.5264 162.712 28.6748C162.712 29.2607 162.539 29.7969 162.193 30.2832C161.854 30.7637 161.382 31.1445 160.778 31.4258C161.47 31.6719 161.997 32.0469 162.36 32.5508C162.729 33.0488 162.914 33.6699 162.914 34.4141C162.914 35.5625 162.457 36.4766 161.543 37.1562C160.629 37.8301 159.41 38.167 157.887 38.167C156.475 38.167 155.303 37.8359 154.371 37.1738C153.439 36.5059 152.974 35.5977 152.974 34.4492H156.067C156.067 34.8301 156.237 35.1523 156.577 35.416C156.917 35.6738 157.354 35.8027 157.887 35.8027C158.461 35.8027 158.927 35.668 159.284 35.3984C159.642 35.1289 159.82 34.7773 159.82 34.3438C159.82 33.7109 159.668 33.2656 159.363 33.0078C159.059 32.7441 158.613 32.6123 158.027 32.6123H156.384V30.3271H158.133C159.129 30.2979 159.627 29.7734 159.627 28.7539Z" fill="black"/>
<path d="M172.002 35.6094H167.774L167.036 38H163.74L168.434 25.2031H171.334L176.062 38H172.749L172.002 35.6094ZM168.513 33.2275H171.264L169.884 28.7891L168.513 33.2275Z" fill="black"/>
</svg>
