<svg width="19" height="19" viewBox="0 0 19 19" fill="none" xmlns="http://www.w3.org/2000/svg">
<g clip-path="url(#clip0)">
<path d="M18.8887 14.7215C18.8352 14.5596 18.4946 14.3211 17.8671 14.0065C17.6971 13.9073 17.4549 13.7726 17.1415 13.6016C16.8278 13.4307 16.543 13.2731 16.2878 13.1292C16.032 12.9852 15.7924 12.8458 15.5685 12.7111C15.5327 12.6841 15.4207 12.6055 15.2325 12.4747C15.0441 12.3444 14.8852 12.2476 14.755 12.1845C14.6251 12.1218 14.4973 12.0903 14.3718 12.0903C14.1926 12.0903 13.9687 12.2185 13.7 12.4747C13.4312 12.7313 13.1846 13.01 12.9607 13.3116C12.7367 13.6131 12.4991 13.8918 12.2484 14.1482C11.9974 14.4047 11.7911 14.5328 11.6299 14.5328C11.549 14.5328 11.4482 14.5102 11.3273 14.4655C11.2065 14.4206 11.1146 14.382 11.0515 14.351C10.9889 14.3193 10.8816 14.2565 10.7292 14.1617C10.5764 14.0673 10.4915 14.0155 10.4736 14.0065C9.24577 13.3226 8.19275 12.5399 7.31434 11.6586C6.4362 10.7767 5.65634 9.71987 4.97522 8.48732C4.96628 8.46932 4.91462 8.38382 4.82059 8.23096C4.72641 8.07797 4.66365 7.97016 4.63229 7.90702C4.60092 7.84411 4.56283 7.75185 4.5181 7.63043C4.47337 7.50901 4.4509 7.40786 4.4509 7.32681C4.4509 7.16497 4.57865 6.95796 4.8341 6.70604C5.0895 6.45427 5.36741 6.21577 5.66755 5.99103C5.96792 5.76629 6.24555 5.51882 6.50104 5.24904C6.75645 4.97911 6.88415 4.75433 6.88415 4.57444C6.88415 4.44858 6.85279 4.32025 6.79011 4.18985C6.72739 4.05917 6.63105 3.8997 6.50104 3.71069C6.37099 3.52178 6.29259 3.40943 6.26565 3.37327C6.13136 3.14853 5.99259 2.90791 5.84902 2.65151C5.70545 2.39515 5.54875 2.10939 5.37839 1.79456C5.20816 1.47988 5.07382 1.2369 4.97513 1.06599C4.66162 0.436388 4.42416 0.094386 4.26279 0.0405997C4.20002 0.013612 4.10585 0 3.9805 0C3.73838 0 3.42252 0.0449007 3.03268 0.134986C2.6427 0.224929 2.33583 0.319268 2.11174 0.41838C1.66361 0.6072 1.18864 1.15593 0.686691 2.06439C0.229614 2.90985 0.00109863 3.74666 0.00109863 4.5742C0.00109863 4.8169 0.0167787 5.05303 0.0481389 5.28264C0.0794991 5.51201 0.135533 5.77069 0.216288 6.05862C0.296902 6.34646 0.361929 6.56028 0.411089 6.69952C0.460295 6.83885 0.552162 7.08845 0.686644 7.44842C0.820937 7.80828 0.901692 8.02858 0.928579 8.10954C1.24223 8.9912 1.61417 9.77829 2.04432 10.471C2.75204 11.6225 3.71785 12.8124 4.94118 14.0405C6.16456 15.2684 7.34984 16.2378 8.49708 16.9484C9.18714 17.3801 9.97157 17.7534 10.8498 18.0685C10.9305 18.0953 11.15 18.1762 11.5084 18.3115C11.8669 18.4464 12.1156 18.5386 12.2545 18.588C12.3933 18.6376 12.6064 18.7029 12.8929 18.784C13.1801 18.865 13.4375 18.9213 13.666 18.953C13.8947 18.984 14.13 19 14.3718 19C15.1962 19 16.03 18.7705 16.8724 18.3118C17.7774 17.8081 18.3239 17.3313 18.5121 16.8812C18.6111 16.6565 18.7049 16.3484 18.7945 15.9569C18.8844 15.5657 18.929 15.2487 18.929 15.0057C18.9293 14.8793 18.9158 14.7851 18.8887 14.7215Z" fill="white"/>
</g>
<defs>
<clipPath id="clip0">
<rect width="18.929" height="19" fill="white"/>
</clipPath>
</defs>
</svg>
