<svg width="21" height="19" viewBox="0 0 21 19" fill="none" xmlns="http://www.w3.org/2000/svg">
<g clip-path="url(#clip0)">
<path d="M20.9551 14.7215C20.8957 14.5596 20.5178 14.3211 19.8217 14.0065C19.6331 13.9073 19.3644 13.7726 19.0167 13.6016C18.6687 13.4307 18.3528 13.2731 18.0696 13.1292C17.7858 12.9852 17.52 12.8458 17.2716 12.7111C17.2319 12.6841 17.1076 12.6055 16.8988 12.4747C16.6898 12.3444 16.5135 12.2476 16.3691 12.1845C16.225 12.1218 16.0832 12.0903 15.944 12.0903C15.7452 12.0903 15.4968 12.2185 15.1986 12.4747C14.9005 12.7313 14.6269 13.01 14.3785 13.3116C14.13 13.6131 13.8664 13.8918 13.5883 14.1482C13.3098 14.4047 13.0809 14.5328 12.9022 14.5328C12.8124 14.5328 12.7005 14.5102 12.5664 14.4655C12.4324 14.4206 12.3304 14.382 12.2604 14.351C12.191 14.3193 12.072 14.2565 11.9028 14.1617C11.7334 14.0673 11.6391 14.0155 11.6193 14.0065C10.2571 13.3226 9.08891 12.5399 8.11439 11.6586C7.14019 10.7767 6.275 9.71987 5.51936 8.48732C5.50944 8.46932 5.45213 8.38382 5.34781 8.23096C5.24333 8.07797 5.1737 7.97016 5.13891 7.90702C5.10412 7.84411 5.06185 7.75185 5.01223 7.63043C4.9626 7.50901 4.93768 7.40786 4.93768 7.32681C4.93768 7.16497 5.07941 6.95796 5.3628 6.70604C5.64615 6.45427 5.95446 6.21577 6.28743 5.99103C6.62067 5.76629 6.92867 5.51882 7.21212 5.24904C7.49546 4.97911 7.63714 4.75433 7.63714 4.57444C7.63714 4.44858 7.60234 4.32025 7.53281 4.18985C7.46323 4.05917 7.35635 3.8997 7.21212 3.71069C7.06783 3.52178 6.98086 3.40943 6.95097 3.37327C6.80199 3.14853 6.64804 2.90791 6.48876 2.65151C6.32949 2.39515 6.15563 2.10939 5.96663 1.79456C5.77779 1.47988 5.62875 1.2369 5.51926 1.06599C5.17145 0.436388 4.90801 0.094386 4.72899 0.0405997C4.65935 0.013612 4.55487 0 4.41581 0C4.1472 0 3.79678 0.0449007 3.36429 0.134986C2.93165 0.224929 2.59121 0.319268 2.3426 0.41838C1.84544 0.6072 1.31851 1.15593 0.761638 2.06439C0.254554 2.90985 0.0010376 3.74666 0.0010376 4.5742C0.0010376 4.8169 0.0184332 5.05303 0.0532244 5.28264C0.0880156 5.51201 0.15018 5.77069 0.23977 6.05862C0.329203 6.34646 0.401346 6.56028 0.455883 6.69952C0.510473 6.83885 0.612391 7.08845 0.761586 7.44842C0.910572 7.80828 1.00016 8.02858 1.02999 8.10954C1.37795 8.9912 1.79059 9.77829 2.2678 10.471C3.05295 11.6225 4.12442 12.8124 5.48159 14.0405C6.83882 15.2684 8.15378 16.2378 9.42653 16.9484C10.1921 17.3801 11.0623 17.7534 12.0367 18.0685C12.1262 18.0953 12.3697 18.1762 12.7673 18.3115C13.165 18.4464 13.441 18.5386 13.595 18.588C13.7491 18.6376 13.9854 18.7029 14.3033 18.784C14.6219 18.865 14.9075 18.9213 15.161 18.953C15.4147 18.984 15.6757 19 15.944 19C16.8586 19 17.7836 18.7705 18.7182 18.3118C19.7222 17.8081 20.3285 17.3313 20.5373 16.8812C20.6471 16.6565 20.7511 16.3484 20.8505 15.9569C20.9503 15.5657 20.9998 15.2487 20.9998 15.0057C21.0001 14.8793 20.9851 14.7851 20.9551 14.7215Z" fill="#00793A"/>
</g>
<defs>
<clipPath id="clip0">
<rect width="21" height="19" fill="white"/>
</clipPath>
</defs>
</svg>
