<svg width="32" height="32" viewBox="0 0 32 32" fill="none" xmlns="http://www.w3.org/2000/svg">
<rect width="31.1111" height="31.1111" rx="13.3333" transform="matrix(1 0 0 -1 0 31.5557)" fill="#00793A"/>
<path d="M25.8448 18.3959C26.5409 12.5363 25.5104 8.83701 23.6515 7.16382L23.6524 7.16285C20.6522 4.30548 10.5197 3.88257 6.93022 7.29118C5.31827 8.95854 4.75049 11.4056 4.68827 14.4351C4.62605 17.4655 4.55216 23.1423 9.84202 24.6823H9.84688L9.84202 27.0341C9.84202 27.0341 9.80605 27.9869 10.4147 28.1784C11.1108 28.404 11.4258 27.9616 13.5909 25.3755C17.2115 25.6895 19.992 24.9701 20.308 24.8651C21.0391 24.6201 25.1759 24.0727 25.8448 18.3959ZM13.9477 23.7208C13.9477 23.7208 11.6562 26.5781 10.9435 27.3199C10.7102 27.561 10.4545 27.5387 10.4584 27.0604C10.4584 26.7463 10.4759 23.1559 10.4759 23.1559C5.99105 21.8706 6.25549 17.0367 6.3041 14.508C6.35272 11.9783 6.81549 9.90646 8.18049 8.51132C11.3295 5.55868 20.2127 6.21882 22.476 8.34604C25.243 10.799 24.2581 17.729 24.264 17.9652C23.6952 22.7038 20.343 23.0042 19.7266 23.2094C19.4631 23.2969 17.018 23.9259 13.9477 23.7208Z" fill="white"/>
<path d="M15.2156 9.06641C14.8413 9.06641 14.8413 9.64974 15.2156 9.6546C18.1197 9.67696 20.5113 11.7011 20.5376 15.414C20.5376 15.8059 21.1112 15.801 21.1063 15.4092H21.1054C21.0742 11.4085 18.4629 9.08877 15.2156 9.06641Z" fill="white"/>
<path d="M19.0354 14.7986C19.0266 15.1855 19.5993 15.204 19.6041 14.8122C19.6518 12.6062 18.2916 10.7891 15.7356 10.5976C15.3613 10.5704 15.3224 11.1586 15.6958 11.1858C17.9124 11.354 19.0801 12.8668 19.0354 14.7986Z" fill="white"/>
<path d="M18.4233 17.3084C17.943 17.0303 17.454 17.2034 17.2517 17.4766L16.8288 18.0239C16.614 18.302 16.2124 18.265 16.2124 18.265C13.2822 17.4902 12.4985 14.4238 12.4985 14.4238C12.4985 14.4238 12.4626 14.0087 12.7309 13.786L13.2598 13.3485C13.5242 13.1385 13.6915 12.633 13.4222 12.1362C12.7027 10.8363 12.2195 10.3881 11.9735 10.0439C11.7149 9.72018 11.326 9.64726 10.9216 9.86601H10.9129C10.0719 10.358 9.15118 11.2787 9.44577 12.2266C9.94841 13.226 10.872 16.412 13.8159 18.8192C15.1994 19.9577 17.3888 21.1243 18.3183 21.3937L18.327 21.4073C19.2429 21.7125 20.1334 20.7559 20.6088 19.8896V19.8828C20.8198 19.4638 20.7498 19.0671 20.4416 18.8075C19.8952 18.2748 19.0708 17.6866 18.4233 17.3084Z" fill="white"/>
<path d="M16.1363 12.7675C17.0706 12.822 17.5237 13.31 17.5723 14.3124C17.5898 14.7042 18.1585 14.677 18.141 14.2852C18.0788 12.9766 17.3963 12.2474 16.1674 12.1793C15.7931 12.157 15.7581 12.7452 16.1363 12.7675Z" fill="white"/>
</svg>
